<svg width="64" height="64" viewBox="0 0 64 64" fill="none" xmlns="http://www.w3.org/2000/svg">
  <!-- Background gradient circle -->
  <defs>
    <linearGradient id="bgGradient" x1="0%" y1="0%" x2="100%" y2="100%">
      <stop offset="0%" style="stop-color:#1890FF;stop-opacity:1" />
      <stop offset="100%" style="stop-color:#0066CC;stop-opacity:1" />
    </linearGradient>
    <linearGradient id="lightningGradient" x1="0%" y1="0%" x2="100%" y2="100%">
      <stop offset="0%" style="stop-color:#FFD700;stop-opacity:1" />
      <stop offset="100%" style="stop-color:#FFA500;stop-opacity:1" />
    </linearGradient>
  </defs>
  
  <!-- Main background circle -->
  <circle cx="32" cy="32" r="30" fill="url(#bgGradient)" stroke="#003D82" stroke-width="2"/>
  
  <!-- Lightning bolt for energy -->
  <path d="M40 12 L24 32 L32 32 L28 52 L44 28 L36 28 Z" fill="url(#lightningGradient)" stroke="#CC8400" stroke-width="1"/>
  
  <!-- Trading chart background -->
  <rect x="8" y="42" width="48" height="16" rx="2" fill="#FFFFFF" fill-opacity="0.15"/>
  
  <!-- Trading chart lines -->
  <path d="M10 52 L16 48 L24 50 L32 46 L40 48 L48 44 L54 46" stroke="#FFFFFF" stroke-width="2" fill="none" opacity="0.9"/>
  <path d="M10 54 L16 50 L24 52 L32 48 L40 50 L48 46 L54 48" stroke="#FFFFFF" stroke-width="1.5" fill="none" opacity="0.7"/>
  
  <!-- Trading dots -->
  <circle cx="16" cy="48" r="1.5" fill="#FFFFFF"/>
  <circle cx="32" cy="46" r="1.5" fill="#FFFFFF"/>
  <circle cx="48" cy="44" r="1.5" fill="#FFFFFF"/>
  
  <!-- Small grid lines for trading theme -->
  <g opacity="0.3">
    <line x1="12" y1="45" x2="52" y2="45" stroke="#FFFFFF" stroke-width="0.5"/>
    <line x1="12" y1="49" x2="52" y2="49" stroke="#FFFFFF" stroke-width="0.5"/>
    <line x1="12" y1="53" x2="52" y2="53" stroke="#FFFFFF" stroke-width="0.5"/>
  </g>
</svg>
